<?xml version="1.0" encoding="utf-8"?>
<!-- Generator: Adobe Illustrator 24.0.1, SVG Export Plug-In . SVG Version: 6.00 Build 0)  -->
<svg version="1.1" id="Layer_1" xmlns="http://www.w3.org/2000/svg" xmlns:xlink="http://www.w3.org/1999/xlink" x="0px" y="0px"
	 viewBox="0 0 800 800" style="enable-background:new 0 0 800 800;" xml:space="preserve">
<style type="text/css">
	.st0{fill:#FFFFFF;}
	.st1{fill:none;}
</style>
<g>
	<polygon class="st0" points="352.2,223.8 352.2,311.59 267.49,311.59 267.49,223.8 189.97,223.8 189.97,474.67 267.49,474.67 
		267.49,373.19 352.2,373.19 352.2,474.67 381.61,474.67 430.06,419.31 430.06,223.8 	"/>
	<polygon class="st0" points="430.06,474.67 430.06,419.31 381.61,474.67 	"/>
	<polygon class="st0" points="522.19,385.49 613.73,290.8 510.63,290.8 485.7,319.9 511,291 485.7,319.9 429.43,385.6 429.43,384.2 
		351.91,472.77 351.91,541.67 429.43,541.67 429.43,480.45 469.48,438.5 522.38,541.67 617.84,541.67 	"/>
</g>
<line class="st1" x1="478" y1="384" x2="4" y2="930"/>
</svg>
